HIERARCHY
ROOT root
{
	OFFSET 0.000000 0.000000 0.000000
	CHANNELS 6 Xposition Yposition Zposition Zrotation Yrotation Xrotation
	JOINT lhip
	{
		OFFSET 0.058581 -0.082280 -0.017664
		CHANNELS 3 Zrotation Yrotation Xrotation
		JOINT lknee
		{
			OFFSET 0.043451 -0.386469 0.008037
			CHANNELS 3 Zrotation Yrotation Xrotation
			JOINT lankle
			{
				OFFSET -0.014790 -0.426874 -0.037428
				CHANNELS 3 Zrotation Yrotation Xrotation
				JOINT ltoe
				{
					OFFSET 0.041054 -0.060286 0.122042
					CHANNELS 3 Zrotation Yrotation Xrotation
					End Site
					{
						OFFSET 0.000000 0.000000 0.000000
					}
				}
			}
		}
	}
	JOINT rhip
	{
		OFFSET -0.060310 -0.090513 -0.013543
		CHANNELS 3 Zrotation Yrotation Xrotation
		JOINT rknee
		{
			OFFSET -0.043257 -0.383688 -0.004843
			CHANNELS 3 Zrotation Yrotation Xrotation
			JOINT rankle
			{
				OFFSET 0.019056 -0.420046 -0.034562
				CHANNELS 3 Zrotation Yrotation Xrotation
				JOINT rtoe
				{
					OFFSET -0.034840 -0.062106 0.130323
					CHANNELS 3 Zrotation Yrotation Xrotation
					End Site
					{
						OFFSET 0.000000 0.000000 0.000000
					}
				}
			}
		}
	}
	JOINT lowerback
	{
		OFFSET 0.004439 0.124404 -0.038385
		CHANNELS 3 Zrotation Yrotation Xrotation
		JOINT upperback
		{
			OFFSET 0.004488 0.137956 0.026820
			CHANNELS 3 Zrotation Yrotation Xrotation
			JOINT chest
			{
				OFFSET -0.002265 0.056032 0.002855
				CHANNELS 3 Zrotation Yrotation Xrotation
				JOINT lowerneck
				{
					OFFSET -0.013390 0.211636 -0.033468
					CHANNELS 3 Zrotation Yrotation Xrotation
					JOINT upperneck
					{
						OFFSET 0.010113 0.088937 0.050410
						CHANNELS 3 Zrotation Yrotation Xrotation
						End Site
						{
							OFFSET 0.000000 0.000000 0.000000
						}
					}
				}
				JOINT lclavicle
				{
					OFFSET 0.071702 0.114000 -0.018898
					CHANNELS 3 Zrotation Yrotation Xrotation
					JOINT lshoulder
					{
						OFFSET 0.122921 0.045205 -0.019046
						CHANNELS 3 Zrotation Yrotation Xrotation
						JOINT lelbow
						{
							OFFSET 0.255332 -0.015649 -0.022946
							CHANNELS 3 Zrotation Yrotation Xrotation
							JOINT lwrist
							{
								OFFSET 0.265709 0.012698 -0.007375
								CHANNELS 3 Zrotation Yrotation Xrotation
								End Site
								{
									OFFSET 0.000000 0.000000 0.000000
								}
							}
						}
					}
				}
				JOINT rclavicle
				{
					OFFSET -0.082954 0.112472 -0.023707
					CHANNELS 3 Zrotation Yrotation Xrotation
					JOINT rshoulder
					{
						OFFSET -0.113228 0.046853 -0.008472
						CHANNELS 3 Zrotation Yrotation Xrotation
						JOINT relbow
						{
							OFFSET -0.260127 -0.014369 -0.031269
							CHANNELS 3 Zrotation Yrotation Xrotation
							JOINT rwrist
							{
								OFFSET -0.269108 0.006794 -0.006027
								CHANNELS 3 Zrotation Yrotation Xrotation
								End Site
								{
									OFFSET 0.000000 0.000000 0.000000
								}
							}
						}
					}
				}
			}
		}
	}
}
MOTION
Frames: 10
Frame Time: 0.033333
0.978270 1.377245 0.978365 92.412240 0.685765 85.480770 -0.593039 3.744343 13.899375 -9.917928 -18.525936 23.437787 -7.128813 -2.033612 -6.789124 0.000000 -0.000000 0.000000 7.831609 5.013210 -13.072257 -3.080263 3.760040 6.685776 -2.440370 -5.451945 2.366449 0.000000 -0.000000 0.000000 -0.717898 -7.465476 7.510733 3.560117 -6.145265 5.114837 -1.400939 -5.669193 0.185233 2.897508 -27.586474 -3.404645 6.275766 -34.509882 4.881330 -25.411626 0.063812 4.808113 -57.995215 -18.160070 14.451460 19.238031 -45.829911 7.064681 -2.942691 -8.232484 -1.777871 27.841255 0.526697 0.141675 53.852476 -4.379662 11.316874 -12.917102 19.214340 8.255867 9.789327 3.846905 0.455642 
1.020134 1.375965 0.983289 92.219142 1.512857 84.546706 1.748230 3.635873 11.176861 -12.564643 -14.599641 32.505702 -12.799632 -3.886143 1.139960 0.000000 -0.000000 0.000000 8.391117 5.810283 -11.668462 -1.329795 2.790722 11.657694 -4.558621 -4.818403 -2.803326 0.000000 -0.000000 0.000000 -0.149323 -7.422524 7.301031 4.608478 -6.530510 5.915709 -1.283573 -5.824303 -0.256381 3.379600 -27.972211 -2.551541 5.478571 -35.462822 4.860959 -26.169931 0.266287 4.955409 -58.196875 -16.629712 14.071208 18.620178 -43.247181 7.806096 -3.606865 -7.573516 -1.623925 27.990795 0.938155 0.231527 52.965088 -2.625597 10.464054 -14.356819 21.813617 7.585266 8.373848 3.603139 -1.041474 
1.057581 1.373999 0.987952 92.066924 2.588535 83.913118 4.170237 4.713413 6.041124 -12.228129 -11.721965 42.439696 -22.104385 -7.680138 13.467166 0.000000 -0.000000 0.000000 10.064903 6.454737 -9.128366 -1.228552 2.233595 13.086208 -7.509114 -4.346596 -5.730875 0.000000 -0.000000 0.000000 0.337365 -6.880081 8.105377 5.169368 -7.297568 6.005351 -0.117673 -5.637276 -1.629502 1.896235 -29.080651 -0.505437 6.980670 -35.346273 5.658377 -24.855698 -0.683658 5.000733 -61.056972 -14.107150 12.326999 18.345437 -39.016481 5.482207 -9.085726 -6.449912 2.529214 26.730133 2.268168 1.043663 52.993268 -1.396311 6.415656 -13.834337 25.024283 6.283508 5.745343 3.702791 -0.378117 
1.092006 1.372143 0.991758 91.746612 2.472250 83.785917 4.419879 3.535519 0.182271 -14.068692 -9.167442 52.057436 -21.724992 -6.454857 14.074781 0.000000 -0.000000 0.000000 10.694492 6.130788 -6.411020 -1.255481 3.212156 12.701760 -8.755770 -4.834702 -7.780368 0.000000 -0.000000 0.000000 -0.481908 -5.118711 8.046580 6.043958 -8.273853 6.080494 0.348930 -5.764441 -1.926994 2.969650 -29.612837 -0.180553 6.968764 -36.146564 6.392768 -24.015966 -1.338264 5.674989 -62.050421 -12.837721 11.098470 17.016152 -35.035690 6.832727 -9.776589 -5.351095 2.129053 26.338027 2.904440 1.161784 53.347216 0.034709 5.974889 -15.484535 27.995479 5.530644 5.630998 4.034602 -2.820365 
1.127818 1.369845 0.995216 89.484232 2.373127 82.605839 5.074656 3.147274 -3.468015 -11.738319 -3.741307 57.879381 -16.883675 -4.077125 7.705921 0.000000 -0.000000 0.000000 11.356093 4.142670 -1.871203 -0.980013 6.268589 11.101446 -9.230899 -4.192416 -9.311729 0.000000 -0.000000 0.000000 -0.485624 -2.831305 8.484900 6.041085 -8.603673 6.522530 0.331439 -5.390699 -1.714778 3.672447 -30.151182 0.028654 7.223927 -36.393275 7.081796 -23.736679 -1.634355 5.684372 -61.390742 -11.658422 9.195006 14.641501 -31.328483 8.991632 -11.158682 -4.267585 1.787191 25.975346 3.657566 1.132643 53.589582 1.243998 5.951975 -16.092688 31.960981 5.624207 4.393874 4.158300 -4.673270 
1.159891 1.369254 0.998456 87.193140 1.380579 83.028460 4.969442 3.402914 -8.740945 -8.471732 0.857333 61.582710 -12.520917 0.582440 1.698506 0.000000 -0.000000 0.000000 10.275469 3.401762 0.926387 -0.556475 8.968120 9.064495 -8.989520 -4.080552 -9.703813 0.000000 -0.000000 0.000000 -1.013425 -1.281781 7.718240 5.753100 -8.629203 6.440245 0.034300 -4.807566 -1.783416 3.274168 -31.267634 1.489493 8.127866 -35.953772 6.659173 -24.426550 -1.355847 6.284232 -59.413205 -10.379487 7.162420 12.762123 -28.041510 10.521690 -12.510266 -3.235338 3.208131 26.088910 4.342126 2.316765 53.165204 2.886248 6.229419 -16.357216 36.119177 6.741885 3.821951 4.341043 -5.268621 
1.193675 1.367996 1.000760 83.336361 0.353495 83.018302 5.148798 3.295982 -12.036087 -6.326460 4.914033 62.042295 -7.981178 4.281810 -1.805559 0.000000 -0.000000 0.000000 8.923994 3.164370 3.980746 0.088457 11.970351 7.749721 -8.621413 -3.605435 -10.531672 0.000000 -0.000000 0.000000 -1.081307 0.296785 6.854426 4.917035 -7.805301 6.791845 -0.770828 -4.091381 -1.272760 3.376160 -31.549114 0.844330 7.055622 -35.975344 9.211355 -24.492577 -0.103236 6.014036 -58.424605 -8.588036 5.318513 12.357003 -25.747345 10.571576 -12.099493 -2.505855 5.310183 25.767239 4.648695 2.237669 53.317267 4.305436 7.177075 -15.661303 39.893250 8.470394 4.691530 5.416790 -4.400361 
1.225061 1.367290 1.002968 79.899436 -0.518163 82.945731 5.384311 2.282420 -14.656455 -5.308964 7.532592 59.707757 -4.948921 6.911761 -4.941774 0.000000 -0.000000 0.000000 7.684431 2.677184 6.366621 0.307896 14.558975 7.510629 -8.565009 -2.839217 -11.881000 0.000000 -0.000000 0.000000 -1.126917 1.638369 7.553859 4.203648 -7.268081 6.061414 -1.146566 -3.304789 -1.234721 2.965822 -31.688542 0.340405 6.208848 -35.825983 11.116559 -24.501324 0.935860 5.851384 -57.726360 -6.045840 3.572320 11.980137 -24.080075 10.225216 -11.022838 -2.144225 6.053878 25.009225 5.178751 1.942020 53.741726 4.918152 7.758166 -14.876865 43.824371 10.485834 5.660449 5.579381 -3.668043 
1.256434 1.366356 1.004507 76.787676 -1.391792 83.151698 5.474866 1.383864 -16.533691 -5.326121 8.230316 54.242472 -2.659511 9.142991 -7.154917 0.000000 -0.000000 0.000000 6.079783 1.980504 8.105216 0.511430 16.375041 7.547843 -7.246631 -1.156804 -13.270881 0.000000 -0.000000 0.000000 -1.573755 2.906937 7.937812 3.960639 -6.786763 5.006087 -1.781592 -2.703886 -0.130430 4.803894 -30.744108 -1.100570 5.408518 -36.695134 10.343610 -25.203243 2.587372 5.417043 -56.161578 -4.129817 4.839156 11.894104 -22.635724 8.731510 -5.786050 -2.152469 1.369174 25.279247 4.495318 0.259091 53.449509 5.816929 11.049356 -15.187369 46.762221 10.908370 4.484918 6.050899 -3.346622 
1.286988 1.365582 1.005526 74.224862 -1.548575 83.468725 5.995178 0.762191 -17.779529 -5.279667 7.353003 46.488596 -1.921396 10.769929 -8.716564 0.000000 -0.000000 0.000000 5.195759 1.802090 9.871237 0.633394 17.423039 7.217010 -6.425482 -0.008201 -13.448702 0.000000 -0.000000 0.000000 -1.601808 3.539260 8.339461 3.797523 -6.511107 4.274517 -1.972320 -2.170200 0.303943 5.650795 -29.641745 -1.826708 4.654744 -37.609729 9.820025 -25.853216 3.937159 5.351774 -55.493650 -2.064933 5.370250 12.479216 -21.046291 6.927862 -3.846513 -2.619485 -0.826635 25.039606 4.296783 -0.264360 53.233443 6.528943 13.033994 -15.253447 49.383337 11.157709 3.403125 6.545640 -3.627773 
